<svg width="91" height="112" viewBox="0 0 91 112" fill="none" xmlns="http://www.w3.org/2000/svg">
<g filter="url(#filter0_d_1_703)">
<rect x="16.7727" y="36" width="33.4545" height="32" rx="5" fill="url(#paint0_linear_1_703)" fill-opacity="0.15"/>
</g>
<path d="M38.8341 44.9705C39.0293 45.1656 39.0294 45.4819 38.8345 45.6772L32.8779 51.6469C32.6831 51.842 32.6831 52.158 32.8779 52.3532L38.8345 58.3228C39.0294 58.5182 39.0293 58.8344 38.8341 59.0296L37.49 60.3737C37.2947 60.569 36.9781 60.569 36.7829 60.3737L28.7627 52.3536C28.5674 52.1583 28.5674 51.8417 28.7627 51.6465L36.7829 43.6263C36.9781 43.431 37.2947 43.431 37.49 43.6263L38.8341 44.9705Z" fill="#40A3F8"/>
<defs>
<filter id="filter0_d_1_703" x="-23.2273" y="0" width="113.455" height="112" filterUnits="userSpaceOnUse" color-interpolation-filters="sRGB">
<feFlood flood-opacity="0" result="BackgroundImageFix"/>
<feColorMatrix in="SourceAlpha" type="matrix" values="0 0 0 0 0 0 0 0 0 0 0 0 0 0 0 0 0 0 127 0" result="hardAlpha"/>
<feOffset dy="4"/>
<feGaussianBlur stdDeviation="20"/>
<feColorMatrix type="matrix" values="0 0 0 0 0 0 0 0 0 0 0 0 0 0 0 0 0 0 0.07 0"/>
<feBlend mode="normal" in2="BackgroundImageFix" result="effect1_dropShadow_1_703"/>
<feBlend mode="normal" in="SourceGraphic" in2="effect1_dropShadow_1_703" result="shape"/>
</filter>
<linearGradient id="paint0_linear_1_703" x1="16.7727" y1="36" x2="53.8636" y2="72.3636" gradientUnits="userSpaceOnUse">
<stop stop-color="#9AD0FF" stop-opacity="0.71"/>
<stop offset="1" stop-color="#6FBCFF" stop-opacity="0.67"/>
</linearGradient>
</defs>
</svg>
