<svg width="12" height="12" viewBox="0 0 12 12" fill="none" xmlns="http://www.w3.org/2000/svg">
<path d="M12 4.65022C12 4.46369 11.8654 4.34777 11.5961 4.30235L7.97599 3.75046L6.35341 0.309974C6.26213 0.103289 6.14424 0 6.00004 0C5.85586 0 5.73805 0.103289 5.64669 0.309974L4.02404 3.75046L0.403793 4.30235C0.134631 4.34777 0 4.46369 0 4.65022C0 4.75613 0.0601168 4.87711 0.180325 5.01322L2.80536 7.68995L2.18517 11.4706C2.17555 11.5412 2.17077 11.5917 2.17077 11.6219C2.17077 11.7277 2.19598 11.8172 2.24645 11.8903C2.29689 11.9636 2.37257 12 2.47358 12C2.56017 12 2.65628 11.9699 2.76204 11.9093L5.99996 10.1247L9.23811 11.9093C9.33925 11.9699 9.43539 12 9.52647 12C9.62293 12 9.69609 11.9636 9.74655 11.8903C9.79687 11.8173 9.8221 11.7277 9.8221 11.6219C9.8221 11.5564 9.81968 11.506 9.81485 11.4706L9.19462 7.68995L11.8124 5.01322C11.9376 4.88214 12 4.76111 12 4.65022Z" fill="#FFC107"/>
</svg>
